PathFileType	4	(X/Y/Z)	C:\Users\86182\Documents\cortex\Trimmed_M1_L16.trc
DataRate	CameraRate	NumFrames	NumMarkers	Units	OrigDataRate	OrigDataStartFrame	OrigNumFrames
100.00	100.00	       70	2	mm	100.00	381	       951
Frame#	Time	gripper			box			
		X1	Y1	Z1	X2	Y2	Z2	

381	3.800	204.76897	209.20839	294.08862	230.40547	206.03107	144.75043	
382	3.810	204.76749	209.20433	294.14230	230.41437	206.03441	144.75443	
383	3.820	204.76273	209.19778	294.18213	230.42171	206.03505	144.77695	
384	3.830	204.75781	209.19025	294.20911	230.43346	206.03609	144.81310	
385	3.840	204.75511	209.18294	294.22540	230.43346	206.03609	144.81310	
386	3.850	204.75589	209.17654	294.23352	230.43346	206.03609	144.81310	
387	3.860	204.76042	209.17126	294.23553	230.43346	206.03609	144.81310	
388	3.870	204.76837	209.16704	294.23334	230.43346	206.03609	144.81310	
389	3.880	204.77888	209.16377	294.22891	230.43346	206.03609	144.81310	
390	3.890	204.79068	209.16142	294.22385	230.43346	206.03609	144.81310	
391	3.900	204.80217	209.15999	294.21936	230.39185	206.01724	144.82330	
392	3.910	204.81178	209.15947	294.21631	230.43346	206.03609	144.81310	
393	3.920	204.81853	209.15965	294.21521	230.43346	206.03609	144.81310	
394	3.930	204.82242	209.16006	294.21564	230.43346	206.03609	144.81310	
395	3.940	204.82422	209.15997	294.21643	230.43346	206.03609	144.81310	
396	3.950	204.82458	209.15860	294.21545	230.43346	206.03609	144.81310	
397	3.960	204.82306	209.15535	294.20953	230.50087	206.02795	144.80219	
398	3.970	204.81815	209.14990	294.19513	230.51413	206.02635	144.80005	
399	3.980	204.80838	209.14211	294.16873	230.43346	206.03609	144.81310	
400	3.990	204.79279	209.13219	294.12790	230.25992	205.96150	144.81918	
401	4.000	204.77139	209.12100	294.07233	230.15752	205.91663	144.83072	
402	4.010	204.74554	209.10971	294.00467	229.86916	205.78987	144.86714	
403	4.020	204.71771	209.09912	293.93085	229.86916	205.78987	144.86714	
404	4.030	204.69077	209.08951	293.85901	229.79593	205.76022	144.85352	
405	4.040	204.66745	209.08130	293.79706	229.81718	205.77629	144.79051	
406	4.050	204.64990	209.07538	293.75018	229.84723	205.79317	144.75371	
407	4.060	204.63924	209.07256	293.71967	229.81041	205.77248	144.79878	
408	4.070	204.63516	209.07304	293.70380	229.84723	205.79317	144.75371	
409	4.080	204.63643	209.07632	293.69922	229.80705	205.77060	144.80289	
410	4.090	204.64108	209.08128	293.70206	229.79692	205.76491	144.81531	
411	4.100	204.64699	209.08650	293.70853	229.82726	205.78194	144.77818	
412	4.110	204.65202	209.09048	293.71533	229.79163	205.75848	144.85268	
413	4.120	204.65456	209.09201	293.72003	229.76976	205.74965	144.84860	
414	4.130	204.65387	209.09058	293.72156	229.79015	205.76109	144.82359	
415	4.140	204.65034	209.08665	293.71997	229.80371	205.76871	144.80702	
416	4.150	204.64536	209.08148	293.71655	229.82726	205.78194	144.77818	
417	4.160	204.64075	209.07681	293.71310	229.79692	205.76491	144.81531	
418	4.170	204.63834	209.07434	293.71130	229.79358	205.76302	144.81944	
419	4.180	204.63930	209.07515	293.71237	229.83388	205.78568	144.77002	
420	4.190	204.64362	209.07922	293.71631	229.83388	205.78568	144.77002	
421	4.200	204.65001	209.08530	293.72205	229.76976	205.74965	144.84860	
422	4.210	204.65631	209.09134	293.72766	229.76976	205.74965	144.84860	
423	4.220	204.66052	209.09541	293.73132	229.76976	205.74965	144.84860	
424	4.230	204.66147	209.09645	293.73196	229.80516	205.76610	144.83601	
425	4.240	204.65916	209.09445	293.72958	229.78680	205.75922	144.82774	
426	4.250	204.65465	209.09039	293.72519	229.80371	205.76871	144.80702	
427	4.260	204.64951	209.08572	293.72025	229.77661	205.75348	144.84024	
428	4.270	204.64526	209.08183	293.71616	229.84723	205.79317	144.75371	
429	4.280	204.64284	209.07965	293.71381	229.84723	205.79317	144.75371	
430	4.290	204.64264	209.07951	293.71356	229.84723	205.79317	144.75371	
431	4.300	204.64453	209.08128	293.71530	229.84059	205.78944	144.76184	
432	4.310	204.64804	209.08453	293.71863	229.79692	205.76491	144.81531	
433	4.320	204.65245	209.08858	293.72281	229.79358	205.76302	144.81944	
434	4.330	204.65683	209.09258	293.72699	229.76976	205.74965	144.84860	
435	4.340	204.66008	209.09555	293.73010	229.79163	205.75848	144.85268	
436	4.350	204.66124	209.09663	293.73120	229.76976	205.74965	144.84860	
437	4.360	204.66002	209.09555	293.72998	229.76976	205.74965	144.84860	
438	4.370	204.65692	209.09277	293.72699	229.76976	205.74965	144.84860	
439	4.380	204.65305	209.08928	293.72321	229.77661	205.75348	144.84024	
440	4.390	204.64937	209.08597	293.71964	229.81718	205.77629	144.79051	
441	4.400	204.64656	209.08345	293.71692	229.82054	205.77817	144.78641	
442	4.410	204.64485	209.08191	293.71521	229.82390	205.78006	144.78229	
443	4.420	204.64417	209.08130	293.71457	229.82054	205.77817	144.78641	
444	4.430	204.64430	209.08142	293.71472	229.83723	205.78755	144.76593	
445	4.440	204.64490	209.08194	293.71527	229.80035	205.76683	144.81116	
446	4.450	204.64554	209.08250	293.71591	229.76976	205.74965	144.84860	
447	4.460	204.64589	209.08279	293.71631	229.76976	205.74965	144.84860	
448	4.470	204.64565	209.08253	293.71613	229.76976	205.74965	144.84860	
449	4.480	204.64473	209.08163	293.71530	229.77661	205.75348	144.84024	
450	4.490	204.64328	209.08025	293.71399	229.76976	205.74965	144.84860	
